# xmcd
#
# Track frame offsets:
#	150
#	12672
#	28557
#	42255
#	55457
#	69930
#	84462
#	100062
#	114975
#	129940
#	144662
#	160550
#	175042
#	189382
#	204362
#	219172
#	233940
#	248997
#	262077
#
# Disc length: 3683 seconds
# Revision: 4
# Processed by: cddbd v1.5.2PL0 Copyright (c) Steve Scherf et al.
# Submitted via: dBpowerAMP V12.0
#
DISCID=fd0e6113
DTITLE=Bessie Smith - The Complete Recordings - Vol. 1
DYEAR=1991
DGENRE=Blues
TTITLE0=Graveyard Dream Blues
TTITLE1=Cemetery Blues
TTITLE2=Far Away Blues
TTITLE3=I'm Going Back to My Used to Be
TTITLE4=Whoa, Tillie, Take Your Time
TTITLE5=My Sweetie Went Away
TTITLE6=Any Woman's Blues
TTITLE7=Chicago Bound Blues
TTITLE8=Mistreating Daddy
TTITLE9=Frosty Morning Blues
TTITLE10=Haunted House Blues
TTITLE11=Eavesdropper's Blues
TTITLE12=Easy Come, Easy Go Blues
TTITLE13=Sorrowful Blues
TTITLE14=Pinchbacks - Take 'Em Away
TTITLE15=Rocking Chair Blues
TTITLE16=Ticket Agent, Ease Your Window Down
TTITLE17=Boweavil Blues
TTITLE18=Hateful Blues
EXTD=
EXTT0=
EXTT1=
EXTT2=
EXTT3=
EXTT4=
EXTT5=
EXTT6=
EXTT7=
EXTT8=
EXTT9=
EXTT10=
EXTT11=
EXTT12=
EXTT13=
EXTT14=
EXTT15=
EXTT16=
EXTT17=
EXTT18=
PLAYORDER=
